<svg width="68" height="68" viewBox="0 0 68 68" fill="none" xmlns="http://www.w3.org/2000/svg">
<path fill-rule="evenodd" clip-rule="evenodd" d="M32.5337 12.9809C30.8904 11.4169 28.5302 10.6392 25.4532 11.3943C24.6968 10.3627 23.6819 9.5487 22.5108 9.03408C20.6182 8.22092 18.2424 8.23792 15.5635 9.77783C12.7613 11.0854 11.4112 13.0078 11.0387 15.0252C10.7865 16.3965 11.0061 17.697 11.3673 18.7227C8.99017 20.8023 8.27475 23.1767 8.61617 25.4136C8.91225 27.3487 9.96908 29.002 11.0061 30.124C10.8244 30.9042 10.8061 31.7135 10.9523 32.5012C11.3914 32.1895 11.5997 32.045 12.0771 31.8509C12.8562 31.5336 13.4937 31.4968 14.2021 31.4968C16.4333 31.4968 17.7239 31.756 19.8517 32.3468C21.0576 32.669 22.2156 33.1491 23.2957 33.7748L23.698 33.6019C24.2038 33.3826 24.7626 33.3157 25.3059 33.4093L30.2827 34.2692C30.0908 33.242 29.9804 32.2013 29.9526 31.1568C29.899 28.6726 30.5356 26.2222 31.7917 24.0783C33.0477 21.9344 34.8739 20.181 37.0671 19.0131C36.4941 18.414 35.7995 17.9444 35.0299 17.6361C34.7041 16.1443 33.9518 14.331 32.5337 12.9809ZM18.6136 14.5633C18.7804 14.4808 18.9618 14.4319 19.1474 14.4195C19.3331 14.4071 19.5194 14.4313 19.6957 14.4909C19.872 14.5505 20.0348 14.6443 20.1749 14.7668C20.3149 14.8893 20.4294 15.0383 20.5119 15.2051L21.6325 17.4718L23.9176 15.0252C24.1771 14.7654 24.5275 14.6165 24.8946 14.61C25.2618 14.6035 25.6172 14.7398 25.8858 14.9903C26.1544 15.2407 26.3153 15.5856 26.3345 15.9524C26.3537 16.3191 26.2297 16.679 25.9887 16.9561L22.9755 20.1832L24.1131 22.4797L25.9987 20.7655C26.2784 20.5261 26.6403 20.405 27.0077 20.4279C27.3752 20.4507 27.7193 20.6157 27.9672 20.8879C28.2151 21.1601 28.3473 21.5182 28.3358 21.8861C28.3243 22.2541 28.1699 22.6032 27.9055 22.8593L25.4193 25.1189L26.9153 28.1421C27.0789 28.4786 27.1028 28.8662 26.9817 29.2202C26.8606 29.5743 26.6044 29.8661 26.2689 30.0318C25.9334 30.1976 25.546 30.2239 25.1912 30.105C24.8364 29.9861 24.543 29.7317 24.3752 29.3972L22.8239 26.2622L20.0416 26.8246C19.6815 26.8803 19.3139 26.7952 19.0149 26.5869C18.716 26.3786 18.5088 26.0632 18.4364 25.7061C18.364 25.349 18.432 24.9778 18.6262 24.6695C18.8204 24.3613 19.1258 24.1397 19.4792 24.0507L21.5248 23.6371L20.3972 21.3605L16.0919 22.0079C15.9045 22.044 15.7117 22.0419 15.5251 22.0016C15.3385 21.9614 15.1619 21.8838 15.0061 21.7736C14.8502 21.6634 14.7182 21.5229 14.618 21.3604C14.5178 21.1979 14.4515 21.0169 14.423 20.8281C14.3946 20.6393 14.4045 20.4468 14.4523 20.262C14.5002 20.0772 14.5848 19.9039 14.7013 19.7527C14.8177 19.6014 14.9635 19.4752 15.13 19.3817C15.2964 19.2882 15.48 19.2293 15.6698 19.2086L19.0783 18.6957L17.9718 16.4588C17.806 16.1223 17.7805 15.7337 17.9008 15.3784C18.0211 15.023 18.2774 14.7299 18.6136 14.5633Z" fill="#FF5D2B"/>
<path fill-rule="evenodd" clip-rule="evenodd" d="M34.1927 34.9846L33.473 34.8443C33.2165 34.1452 33.0296 33.4225 32.9148 32.6868L32.8936 32.6018C32.7491 32.011 32.6528 31.4911 32.6443 31.1001C32.6134 29.5838 32.9033 28.0781 33.4948 26.6817C34.0864 25.2852 34.9662 24.0295 36.0768 22.9968C36.1637 22.9146 36.252 22.8433 36.3418 22.7828C39.1963 20.2328 43.1885 19.7894 46.2797 22.3196C46.2443 18.8459 47.6538 15.4516 51.068 13.4824L52.2651 15.5536C49.3737 17.221 48.2984 20.3419 48.7773 23.6782C55.3718 21.5107 60.5044 27.7483 58.5778 34.9293C57.9818 37.1332 56.7221 39.1003 54.9695 40.5634L54.1053 40.2617C51.5454 39.3734 48.3225 38.2982 45.747 37.5884C43.2423 36.8971 40.0194 36.1817 37.4411 35.6433C36.3596 35.4173 35.2768 35.1977 34.1927 34.9846ZM53.2015 28.3135C53.5701 28.242 53.952 28.3197 54.2633 28.5295C54.5746 28.7393 54.7899 29.0642 54.8618 29.4327C55.1211 30.7234 55.0199 32.0606 54.5693 33.2975C54.1187 34.5345 53.3362 35.6236 52.3076 36.4452C52.016 36.6819 51.6424 36.7931 51.2688 36.7543C50.8953 36.7155 50.5525 36.5299 50.3158 36.2383C50.079 35.9468 49.9679 35.5731 50.0067 35.1996C50.0454 34.826 50.231 34.4832 50.5226 34.2465C51.1516 33.7474 51.6301 33.0839 51.9052 32.3295C52.1802 31.5751 52.241 30.7593 52.0809 29.9724C52.0102 29.6043 52.0883 29.2231 52.2981 28.9125C52.5078 28.6018 52.8322 28.3869 53.2001 28.3149M14.501 59.4972C18.751 59.2606 21.3803 58.0522 23.001 56.2828C23.6456 57.1469 24.7265 57.6484 25.8967 57.4643C27.3629 57.2328 28.8259 56.9821 30.2855 56.712V50.0749H33.4447V56.1014C37.4397 55.2939 42.2988 54.1847 47.6553 52.6929V48.4982H50.8144V51.7848C52.972 51.1431 55.1948 50.4418 57.46 49.6768C58.0506 49.4967 58.5676 49.1316 58.9351 48.6354C59.3025 48.1392 59.5008 47.5381 59.5008 46.9207C59.5008 46.3033 59.3025 45.7022 58.9351 45.206C58.5676 44.7098 58.0506 44.3447 57.46 44.1646C52.1559 42.3778 46.777 40.8213 41.3383 39.4995V48.4982H38.1806V38.7558C32.9531 37.5686 28.6748 36.8149 25.8967 36.3758C25.3519 36.2879 24.7935 36.3518 24.2827 36.5605C23.7719 36.7692 23.3284 37.1145 23.001 37.5587C21.3803 35.7878 18.751 34.5794 14.501 34.3428C14.2947 34.3331 14.0886 34.3658 13.8955 34.4391C13.7024 34.5124 13.5265 34.6246 13.3786 34.7687C13.2307 34.9129 13.1141 35.0859 13.0359 35.2771C12.9578 35.4683 12.9197 35.6734 12.9243 35.8799C12.9611 38.4483 13.1183 40.4883 13.6538 42.0793C11.9184 42.7366 10.2822 44.0626 8.78617 46.0587C8.40367 46.5687 8.40367 47.2728 8.78617 47.7828C10.2694 49.7618 11.8929 51.0836 13.6113 51.7452C13.1552 53.2893 12.9738 55.3152 12.9271 57.9558C12.922 58.1623 12.9595 58.3676 13.0371 58.5589C13.1148 58.7503 13.2309 58.9236 13.3784 59.0682C13.5259 59.2128 13.7015 59.3254 13.8944 59.3992C14.0873 59.473 14.2933 59.5064 14.4996 59.4972M17.6148 43.9535L14.7716 45.0302C13.9839 45.3277 13.0999 45.9099 12.1649 46.92C13.09 47.9202 13.9655 48.501 14.7461 48.8013L17.4633 49.8483L16.6388 52.6377C16.3965 53.4593 16.2336 54.5842 16.1472 56.1623C19.193 55.6948 20.4793 54.5658 21.1438 53.5387C22.1 52.0611 22.3876 49.9049 22.3876 46.92C22.3876 43.9351 22.1 41.7803 21.1438 40.3028C20.4779 39.2743 19.1888 38.1452 16.1387 37.6763C16.2194 39.2063 16.3795 40.2801 16.6458 41.0748L17.6148 43.9535Z" fill="#FF5D2B"/>
</svg>
