<svg width="24" height="24" viewBox="0 0 24 24" fill="none" xmlns="http://www.w3.org/2000/svg">
<rect width="24" height="24" fill="#F4F1BB"/>
<path d="M8.29282 7.64438C8.33696 7.62253 8.38498 7.60959 8.43413 7.60631C8.48328 7.60302 8.53259 7.60944 8.57926 7.62522C8.62592 7.64099 8.66902 7.66581 8.70609 7.69824C8.74316 7.73068 8.77348 7.7701 8.79532 7.81426L9.09194 8.41576L9.69682 7.76701C9.76461 7.69428 9.85851 7.65144 9.95787 7.64793C10.0572 7.64441 10.1539 7.6805 10.2267 7.74826C10.3778 7.89001 10.3861 8.12738 10.2451 8.27888L9.44706 9.13501L9.74819 9.74476L10.2473 9.28988C10.2838 9.25673 10.3264 9.23108 10.3727 9.2144C10.4191 9.19772 10.4683 9.19033 10.5175 9.19266C10.5667 9.195 10.6149 9.207 10.6595 9.228C10.7041 9.24899 10.7441 9.27855 10.7772 9.31501C10.8105 9.35146 10.8362 9.39412 10.853 9.44054C10.8697 9.48697 10.8771 9.53624 10.8748 9.58554C10.8725 9.63483 10.8604 9.68318 10.8393 9.72782C10.8183 9.77245 10.7886 9.81249 10.7521 9.84563L10.0939 10.4449L10.4899 11.247C10.5341 11.3362 10.541 11.4392 10.5092 11.5335C10.4774 11.6278 10.4094 11.7055 10.3203 11.7497C10.2311 11.7939 10.128 11.8008 10.0338 11.769C9.93949 11.7371 9.86172 11.6692 9.81757 11.58L9.40694 10.7479L8.67044 10.8971C8.57282 10.9169 8.47136 10.897 8.38838 10.842C8.30539 10.7869 8.24768 10.7011 8.22794 10.6035C8.2082 10.5059 8.22804 10.4044 8.28311 10.3214C8.33817 10.2385 8.42395 10.1808 8.52157 10.161L9.06306 10.0515L8.76494 9.44776L7.62494 9.61951C7.52648 9.63428 7.42618 9.60933 7.34612 9.55015C7.26605 9.49097 7.21277 9.40241 7.198 9.30395C7.18323 9.20548 7.20818 9.10519 7.26736 9.02512C7.32654 8.94506 7.4151 8.89178 7.51357 8.87701L8.41582 8.74088L8.12294 8.14726C8.10103 8.10309 8.08805 8.05504 8.08473 8.00585C8.08141 7.95666 8.08782 7.9073 8.1036 7.86059C8.11938 7.81389 8.14421 7.77075 8.17668 7.73365C8.20915 7.69655 8.24861 7.66621 8.29282 7.64438ZM16.7678 10.968C16.8168 10.9629 16.8663 10.9675 16.9136 10.9816C16.9608 10.9957 17.0048 11.0189 17.043 11.0499C17.0812 11.081 17.113 11.1193 17.1364 11.1626C17.1598 11.206 17.1745 11.2535 17.1796 11.3025C17.2546 12.0176 16.9396 12.6938 16.3444 13.0965C16.2619 13.1477 16.1627 13.1649 16.0677 13.1445C15.9727 13.1242 15.8893 13.0678 15.835 12.9873C15.7807 12.9068 15.7596 12.8083 15.7763 12.7126C15.793 12.6169 15.8461 12.5314 15.9244 12.474C16.1018 12.3564 16.2433 12.192 16.3332 11.999C16.423 11.8061 16.4578 11.592 16.4337 11.3805C16.4285 11.3315 16.433 11.2819 16.447 11.2346C16.461 11.1873 16.4842 11.1433 16.5152 11.105C16.5462 11.0666 16.5845 11.0348 16.6279 11.0113C16.6712 10.9878 16.7188 10.9731 16.7678 10.968Z" fill="#FA523D"/>
<path fill-rule="evenodd" clip-rule="evenodd" d="M6.79083 18.7495C7.90233 18.6932 8.59645 18.3842 9.0277 17.9275C9.17845 18.1427 9.4402 18.2687 9.72408 18.2245C11.2143 17.992 14.5353 17.38 18.2677 16.0892C18.4079 16.0448 18.5304 15.9569 18.6173 15.8383C18.7043 15.7196 18.7511 15.5763 18.7511 15.4292C18.7511 15.2821 18.7043 15.1388 18.6173 15.0202C18.5304 14.9015 18.4079 14.8136 18.2677 14.7692C17.8445 14.6232 17.4273 14.4856 17.0163 14.3563C17.7607 13.9637 18.3318 13.3048 18.5553 12.4686C19.0597 10.5842 17.736 8.94472 16.0181 9.46634C15.897 8.60159 16.1775 7.80509 16.9136 7.37947L16.5386 6.72922C15.6281 7.25534 15.2456 8.15572 15.2422 9.07784C14.5968 8.58397 13.8146 8.56522 13.1497 8.91284C13.1469 8.8015 13.131 8.69087 13.1025 8.58322C12.9881 8.15534 12.6825 7.84972 12.2625 7.67384C12.1762 7.27784 11.9774 6.79709 11.6021 6.43859C11.1671 6.02384 10.5423 5.81759 9.7282 6.01784C9.52805 5.74419 9.25926 5.52818 8.94895 5.39159C8.44833 5.17597 7.81945 5.18047 7.10995 5.58884C6.36858 5.93572 6.0112 6.44609 5.91258 6.98122C5.84583 7.34497 5.90395 7.68997 5.99958 7.96222C5.37033 8.51384 5.18095 9.14384 5.27133 9.73747C5.3497 10.2508 5.62945 10.6896 5.90395 10.9873C5.8072 11.4325 5.88258 11.8577 6.1672 12.1971C6.2407 12.2843 6.32445 12.3622 6.41845 12.4307C6.41677 12.4459 6.41602 12.4612 6.4162 12.4765C6.42483 13.1732 6.46458 13.7241 6.60745 14.1523C6.14695 14.3282 5.7127 14.6856 5.3167 15.2248C5.27305 15.2841 5.24951 15.3558 5.24951 15.4294C5.24951 15.503 5.27305 15.5747 5.3167 15.634C5.70933 16.1687 6.13983 16.525 6.5962 16.702C6.4747 17.1175 6.42745 17.6642 6.41658 18.3812C6.41541 18.4304 6.42434 18.4793 6.44281 18.5249C6.46128 18.5705 6.48891 18.6119 6.52398 18.6464C6.55905 18.6809 6.60083 18.7078 6.64672 18.7256C6.69262 18.7433 6.74166 18.7514 6.79083 18.7495ZM9.71995 15.4292C9.71995 15.8155 9.70495 16.2017 9.64345 16.5673V17.4771C10.0072 17.4197 10.4786 17.3402 11.0362 17.2337V15.8455H11.7862V17.0848C13.0629 16.821 14.3292 16.509 15.5823 16.1496V15.4296H16.3323V15.9283C16.836 15.7746 17.3523 15.6088 17.8773 15.4296C17.1579 15.1835 16.4327 14.9547 15.7023 14.7433L15.6611 14.7471L14.4262 14.3916C14.2317 14.3408 14.0405 14.2921 13.8525 14.2453V15.8455H13.1025V14.0638C11.9581 13.7944 10.8044 13.5667 9.64345 13.3813V14.2911C9.70458 14.6567 9.71995 15.043 9.71995 15.4292ZM8.89345 16.5017V14.3567C8.84095 14.0717 8.75658 13.8306 8.62758 13.6318C8.4307 13.3285 8.05158 13.0131 7.17708 12.8968C7.1962 13.3555 7.23933 13.6768 7.31845 13.9142L7.54645 14.5975L6.87445 14.854C6.64083 14.9432 6.38208 15.121 6.11283 15.4292C6.37908 15.7345 6.63595 15.9118 6.86733 16.0018L7.5097 16.2516L7.31583 16.9135C7.24458 17.1568 7.20033 17.4902 7.17895 17.9612C8.05233 17.845 8.4307 17.53 8.62758 17.227C8.75658 17.0282 8.84095 16.7871 8.89383 16.5021M9.24895 12.7258C8.81958 12.3928 8.30733 12.1333 7.68108 12.079C7.17333 12.0347 6.8812 11.8802 6.7417 11.7141C6.61795 11.5667 6.55983 11.344 6.67908 10.999L6.76083 10.7627L6.57483 10.5962C6.3367 10.3832 6.07308 10.0176 6.01308 9.62459C5.95983 9.27359 6.05695 8.83109 6.6787 8.38072L6.94683 8.18684L6.78783 7.89622C6.68658 7.71134 6.59658 7.41247 6.65058 7.11772C6.70008 6.84922 6.8797 6.52222 7.44033 6.26347L7.45683 6.25597L7.4722 6.24697C8.0062 5.93572 8.39095 5.96872 8.65345 6.08197C8.9377 6.20384 9.13608 6.44572 9.22495 6.62572L9.37157 6.92197L9.68358 6.81434C10.4092 6.56309 10.8277 6.73709 11.0849 6.98272C11.3726 7.25722 11.5207 7.68322 11.5589 8.00009L11.5886 8.24759L11.8286 8.31622C12.1796 8.41634 12.3288 8.59184 12.3787 8.77784C12.435 8.98747 12.3937 9.31522 12.1387 9.75584C11.9468 10.0897 11.8265 10.4598 11.7854 10.8426C11.6666 11.4325 11.7367 12.0268 11.9591 12.5683C11.9921 12.7015 12.0266 12.8301 12.0592 12.9523L12.0723 13.0003C12.0788 13.0238 12.0845 13.0471 12.0892 13.0701C11.0947 12.8616 10.2817 12.7213 9.72483 12.6343C9.56026 12.6082 9.39212 12.6406 9.24895 12.7258ZM15.7702 13.9821C15.0212 13.7675 14.2675 13.5697 13.5097 13.3888C13.1447 13.1124 12.8566 12.7471 12.6731 12.3276C12.5606 11.8603 12.483 11.4047 12.525 10.9682C12.5325 10.9315 12.5412 10.8947 12.5512 10.858C12.7586 10.0832 13.2611 9.62309 13.7399 9.47909C14.1854 9.34522 14.7018 9.45172 15.12 10.0206L15.4751 10.5043L16.0248 10.2636C16.671 9.98009 17.1708 10.1462 17.49 10.4852C17.8331 10.8501 18.0382 11.4996 17.8312 12.2747C17.5923 13.1665 16.7808 13.8385 15.7702 13.9821Z" fill="#FA523D"/>
</svg>
